<svg width="1002" height="1002" viewBox="0 0 1002 1002" fill="none" xmlns="http://www.w3.org/2000/svg">
<circle cx="501" cy="501" r="498.5" fill="black" stroke="black" stroke-width="5"/>
<path fill-rule="evenodd" clip-rule="evenodd" d="M131.656 790.076C131.418 788.379 131.262 786.626 131.195 784.81C130.868 777.326 130.542 769.847 130.215 762.369C129.889 754.89 129.562 747.411 129.236 739.927C129.348 729.485 129.461 719.065 129.596 708.622C130.318 698.895 131.039 689.163 131.761 679.43C132.48 669.724 133.2 660.017 133.92 650.316C136.104 635.393 138.289 620.469 140.496 605.545L161.035 515.867C163.298 509.134 165.556 502.4 167.813 495.666C170.071 488.933 172.329 482.199 174.592 475.465C175.696 474.502 176.799 473.538 176.214 471.835L176.281 471.454C188.352 440.733 202.292 410.84 217.336 381.44C218.847 378.96 220.339 376.464 221.83 373.969C225.606 367.652 229.383 361.333 233.483 355.245C237.56 349.195 238.888 343.302 235.623 336.646C235.688 326.995 234.887 317.394 234.086 307.781C233.212 297.285 232.336 286.775 232.583 276.167C219.611 295.684 207.833 315.291 198.599 336.31C184.501 363.738 172.092 391.86 163.242 421.439C163.005 421.865 162.763 422.291 162.521 422.716C162.279 423.142 162.037 423.568 161.8 423.994L161.761 424.253C161.661 424.91 161.559 425.581 161.44 426.234C155.607 440.8 150.855 455.679 147.815 471.096C139.257 498.859 132.839 527.094 129.506 555.978C125.61 572.269 123.515 588.784 122.975 605.522C120.588 614.374 120.25 623.404 120.655 632.502C117.662 649.883 118.036 667.359 118.411 684.85C118.484 688.284 118.558 691.72 118.606 695.155C117.93 708.622 117.953 722.09 119.214 735.512C119.733 741.362 119.859 748.073 119.99 755.048C120.117 761.833 120.248 768.868 120.752 775.598C105.729 754.833 92.3663 732.788 80.8571 709.658C75.9379 681.906 74.0744 653.849 73.4745 625.667C73.3966 622.087 73.2387 618.488 73.0806 614.884C72.5996 603.919 72.1171 592.916 73.8799 582.308C75.4798 572.678 76.3482 562.976 77.2159 553.282C78.3391 540.733 79.4612 528.196 82.1675 515.845C85.2753 500.943 88.3832 486.042 91.5136 471.14C100.409 441.001 109.733 410.997 120.475 381.44L138.852 339.291C139.865 337.341 140.873 335.392 141.881 333.442C142.889 331.493 143.897 329.543 144.91 327.594C151.103 315.695 157.296 303.774 163.467 291.875C181.934 261.288 201.684 231.574 222.201 202.332C226.705 198.433 230.038 193.592 233.123 188.595C234.17 187.273 235.212 185.951 236.254 184.629C237.295 183.307 238.337 181.985 239.384 180.663C239.969 180.461 240.172 180.08 239.947 179.498C240.195 179.184 240.448 178.876 240.701 178.568C240.955 178.26 241.208 177.952 241.456 177.638C241.568 177.223 241.681 176.814 241.794 176.405C241.906 175.996 242.019 175.587 242.131 175.173C244.214 171.861 244.451 168.341 244.739 164.064C244.862 162.236 244.994 160.268 245.284 158.12C243.998 159.248 242.867 160.24 241.844 161.136C239.391 163.286 237.563 164.888 235.736 166.501C220.782 176.764 207.585 189.021 195.401 202.376L195.018 202.825L193.464 204.505C191.01 205.917 188.983 207.732 187.924 210.421C176.777 220.617 167.34 232.247 158.85 244.683C136.352 272.604 119.304 303.639 105.769 336.714C105.483 337.327 105.196 337.939 104.909 338.552C101.889 344.99 98.872 351.421 97.8644 358.562C82.9783 394.616 73.407 432.464 70.5919 471.051L68.0921 513.626C68.1034 513.996 66.9717 525.077 65.84 536.158C64.7084 547.239 63.5767 558.32 63.588 558.689C61.4894 594.913 61.8245 599.75 62.9222 615.594C63.4501 623.214 64.1544 633.381 64.8492 650.809C65.0509 655.928 65.0504 657.514 65.1544 659.093C65.2595 660.688 65.471 662.275 66.1046 667.483C67.417 674.841 69.511 681.705 71.2923 687.543C71.8471 689.362 72.3715 691.08 72.8325 692.684C46.5938 634.164 32 569.286 32 501C32 241.978 241.978 32 501 32C604.986 32 701.067 65.8416 778.832 123.112C782.919 126.31 786.932 129.61 790.846 133.046C794.495 136.25 837.171 177.01 839.941 179.946C859.602 200.763 876.379 223.866 893.112 246.969C895.271 250.359 897.436 253.749 899.601 257.14C901.771 260.539 903.942 263.938 906.107 267.338C908.904 274.6 913.026 281.134 917.146 287.664C918.035 289.073 918.924 290.482 919.799 291.897C928.772 310.64 937.267 329.568 944.782 348.886C961.128 396.587 970 447.757 970 501C970 675.807 874.364 828.277 732.56 908.943C716.357 917.07 699.911 924.724 683.445 932.324L682.519 932.649C661.064 940.182 639.608 947.714 618.161 955.247C580.713 964.878 541.454 970 501 970C496.332 970 491.68 969.932 487.044 969.796C488.001 969.522 488.958 969.247 489.914 968.972C493.642 967.902 497.369 966.832 501.096 965.757C549.222 952.021 594.556 931.629 638.697 908.459C669.865 894.028 699.818 877.401 728.667 858.78C740.67 852.775 751.728 845.335 762.29 837.089C776.41 828.417 776.455 828.372 767.763 815.375C765.973 812.699 764.068 810.095 762.162 807.489C760.11 804.684 758.056 801.876 756.142 798.972C753.642 795.163 751.638 794.917 748.597 798.435C733.097 816.343 714.747 831.093 696.405 845.837C692.095 849.301 687.785 852.766 683.513 856.27L683.321 856.401C674.489 862.408 665.658 868.414 656.826 874.443C650.745 878.253 644.665 882.062 638.562 885.894C633.39 888.826 628.217 891.75 623.045 894.675C615.291 899.06 607.536 903.445 599.781 907.854C576.376 921.159 551.974 932.45 527.573 943.74C514.947 949.582 502.322 955.424 489.836 961.544C488.282 962.104 486.75 962.642 485.196 963.202C484.386 962.956 483.778 963.224 483.44 964.054C479.258 965.583 475.07 967.112 470.883 968.642C470.567 968.757 470.252 968.872 469.936 968.988C452.772 967.865 435.859 965.819 419.247 962.899C429.983 957.094 440.715 951.285 451.447 945.476C464.174 938.588 476.901 931.7 489.633 924.817L489.678 924.772C491.233 923.842 492.782 922.911 494.332 921.98C495.879 921.051 497.426 920.122 498.979 919.193C499.372 918.97 499.763 918.748 500.154 918.525C501.218 917.92 502.277 917.318 503.348 916.727C519.045 908.952 534.111 900.101 548.479 890.084C556.587 886.566 563.883 881.703 570.887 876.393C578.905 872.046 586.787 867.474 593.678 861.424C608.767 852.842 622.82 842.781 636.332 831.935C636.726 831.621 637.12 831.302 637.515 830.983C637.909 830.663 638.303 830.344 638.697 830.03C668.469 809.863 695.043 786.11 719.163 759.243C709.767 750.076 699.781 742.144 689.849 734.256C687.521 732.407 685.196 730.56 682.882 728.7C678.806 725.429 676.577 726.28 674.009 730.09C672.713 732.008 671.24 733.816 669.768 735.622C669.142 736.39 668.517 737.157 667.906 737.932C666.762 739.157 665.607 740.374 664.451 741.59C662.309 743.847 660.165 746.105 658.087 748.42C624.523 785.914 586.759 818.994 548.987 852.081L546.43 854.321C539.494 860.057 532.557 865.794 525.643 871.53C521.905 874.499 518.167 877.474 514.428 880.449C510.69 883.423 506.951 886.398 503.213 889.367L467.337 916.795L406.2 960.414C392.526 957.607 379.07 954.206 365.858 950.237C368.507 948.055 370.606 946.329 372.706 944.603C382.502 937.859 391.871 930.643 400.113 922.038C400.812 921.545 401.487 921.052 402.185 920.559C402.393 920.392 402.601 920.223 402.81 920.052C403.189 919.742 403.572 919.429 403.965 919.125C407.928 917.22 410.968 914.263 413.648 910.879C428.782 899.742 442.835 887.373 456.505 874.555C457.203 873.905 457.901 873.278 458.622 872.628C506.613 832.293 552.826 790.076 595.885 744.521C596.245 744.152 596.604 743.778 596.963 743.403C597.325 743.027 597.686 742.65 598.047 742.28C606.214 734.654 613.557 726.286 620.903 717.915C624.759 713.52 628.616 709.125 632.594 704.836C638.787 698.158 636.985 695.312 629.553 692.982C627.177 691.462 624.827 689.895 622.478 688.328C613.364 682.249 604.255 676.173 593.566 672.859C587.359 678.187 582.791 684.812 578.216 691.445C577.346 692.707 576.476 693.969 575.594 695.222C574.79 696.151 573.976 697.07 573.162 697.988C571.286 700.105 569.41 702.22 567.667 704.455C546.338 731.629 523.894 757.872 501.448 784.116C489.246 798.385 477.042 812.653 465.018 827.072C460.897 830.366 457.338 834.153 454.568 838.657L424.638 872.202C420.468 876.878 416.28 881.553 412.107 886.212L410.766 887.709C401.699 895.924 393.842 905.227 385.989 914.526C385.338 915.297 384.686 916.069 384.034 916.84C377.998 921.994 372.661 927.775 368.089 934.273C364.031 940.601 359.558 944.625 354.743 946.746C342.783 942.824 331.035 938.433 319.52 933.597C320.079 932.594 320.896 931.5 321.944 930.285C333.489 916.881 344.684 903.178 355.873 889.481C359.985 884.448 364.097 879.415 368.224 874.398L368.269 874.354C372.676 869.092 377.085 863.831 381.495 858.569C389.594 848.904 397.696 839.237 405.789 829.56C408.266 826.49 410.743 823.42 413.243 820.328C423.603 808.989 433.444 797.225 442.407 784.743C448.33 778.559 453.96 772.172 458.487 764.867C465.333 758.01 471.346 750.481 476.481 742.28C501.118 713.53 524.247 683.615 546.34 652.893C546.604 652.66 546.876 652.43 547.146 652.201C549.705 650.028 552.11 647.987 546.61 645.23C536.414 640.142 526.275 634.919 516.136 629.696C511.942 627.536 507.748 625.376 503.551 623.225C495.961 615.942 489.903 615.718 484.543 626.093C481.552 631.892 477.941 637.373 474.329 642.856C472.693 645.34 471.057 647.824 469.477 650.339C449.006 679.066 431.214 709.429 413.806 740.061C413.153 740.42 412.905 740.958 413.085 741.697C403.739 755.433 395.474 769.775 388.178 784.676C370.409 813.874 353.698 843.654 338.52 874.264C336.706 877.501 334.912 880.748 333.118 883.994C328.877 891.669 324.638 899.34 320.143 906.868C318.506 909.606 317.236 912.901 315.973 916.177C314.042 921.183 312.129 926.145 308.953 929.004C298.514 924.313 288.279 919.252 278.262 913.836C278.413 913.385 278.565 912.933 278.716 912.482C279.442 910.314 280.169 908.145 280.889 905.972C286.294 896.672 290.798 886.969 294.402 876.841C302.442 861.402 310.391 845.94 316.787 829.739C319.895 825.728 322.012 821.246 323.341 816.384C329.511 806.322 334.781 795.813 339.083 784.833C347.685 770.424 355.32 755.523 362.189 740.218C364.914 736.745 367.166 733.025 368.269 728.7C375.318 718.079 381.219 706.83 386.444 695.222C392.591 684.692 398.727 674.161 404.868 663.622C407.456 659.181 410.044 654.738 412.635 650.294C413.333 649.868 413.626 649.263 413.468 648.457C419.932 638.079 426.407 627.701 432.878 617.331C435.335 613.394 437.791 609.457 440.245 605.522L440.253 605.512C449.704 593.332 449.723 593.308 436.845 586.184C431.238 583.078 425.584 580.042 419.935 577.009C417.8 575.863 415.666 574.717 413.536 573.568C410.068 569.132 407.365 571.44 404.618 574.51C403.687 575.546 402.753 576.58 401.82 577.613C393.83 586.46 385.845 595.302 379.755 605.634C373.877 612.29 369.013 619.64 365.252 627.684C359.621 634.474 355.433 642.07 352.212 650.227C343.857 663.448 337.033 677.43 331.831 692.175C317.485 721.866 307.261 753.036 298.748 784.81C293.478 799.353 289.402 814.232 286.97 829.515C281.88 844.125 279.043 859.25 276.34 874.443L276.299 874.83C276.155 876.177 276.013 877.508 275.89 878.858C273.081 885.71 271.849 892.934 270.617 900.151C270.19 902.657 269.762 905.163 269.269 907.652C269.193 908.027 269.114 908.379 269.031 908.71C256.798 901.734 244.909 894.225 233.396 886.212C233.375 884.629 233.352 883.044 233.326 881.457L253.662 784.855C258.324 771.769 262.04 758.436 264.9 744.857C276.002 713.059 287.173 681.307 300.437 650.339C303.942 643.376 307.452 636.414 310.962 629.451C314.467 622.498 317.972 615.545 321.472 608.592C323.836 606.665 325.3 604.2 325.773 601.198C329.914 594.933 334.06 588.664 338.206 582.394C342.336 576.148 346.466 569.903 350.591 563.664C351.763 562.293 352.91 560.895 354.058 559.497C356.68 556.301 359.304 553.103 362.234 550.219C366.851 545.693 366.49 543.116 361.018 539.306C348.744 530.791 336.56 522.03 325.278 512.282C317.283 505.403 312.824 506.097 309.491 515.845C299.401 528.954 291.249 543.183 284.943 558.443C269.336 587.484 258.999 618.452 251.387 650.406C246.748 663.313 243.55 676.556 241.906 690.158C237.402 706.494 234.159 723.031 233.146 739.972C231.592 741.966 231.141 744.207 231.547 746.672L230.939 755.68C224.02 792.338 222.364 829.465 220.708 866.587C220.591 869.221 220.473 871.855 220.354 874.488C220.235 875.167 220.116 875.843 219.995 876.531C205.781 865.878 192.192 854.437 179.293 842.272C179.238 840.674 179.257 839.053 179.277 837.431C179.308 834.797 179.34 832.163 179.051 829.627C179.122 816.153 180.507 802.79 181.895 789.408C182.277 785.719 182.66 782.029 183.015 778.334C187.159 735.378 193.78 692.914 202.991 650.787C204.984 643.258 206.971 635.723 208.959 628.188C210.946 620.654 212.933 613.119 214.927 605.59C217.574 598.113 220.216 590.636 222.858 583.159C225.497 575.69 228.136 568.22 230.781 560.751C232.673 559.048 233.416 556.874 233.326 554.365C236.376 547.991 239.421 541.618 242.466 535.245C245.513 528.868 248.56 522.491 251.613 516.114C260.553 501.997 269.494 487.857 278.412 473.74C278.579 473.613 278.745 473.488 278.911 473.363C281.434 471.465 283.696 469.762 280.822 465.83C269.764 450.615 261.95 433.607 254.045 414.336C251.503 419.532 248.999 424.549 246.55 429.456C240.993 440.589 235.722 451.152 230.939 461.931C230.587 462.723 230.236 463.515 229.884 464.307C222.434 481.087 214.955 497.933 210.31 515.8C204.409 529.559 199.86 543.698 197.113 558.42C187.136 588.358 182.046 619.303 177.52 650.384C177.03 654.188 176.473 657.985 175.916 661.781C174.294 672.834 172.673 683.885 172.723 695.11C167.767 740.732 168.006 786.497 169.003 832.268C155.734 818.971 143.259 804.881 131.656 790.076ZM719.398 519.009C718.989 518.608 718.581 518.201 718.172 517.794L717.947 517.593L715.582 515.643L630.116 445.326C621.941 438.873 613.767 432.397 605.592 425.921C601.214 422.539 596.845 419.148 592.48 415.76C590.018 413.85 587.558 411.94 585.098 410.033C572.576 401.048 560.393 391.659 549.087 381.172L540.034 373.844C525.103 362.169 510.284 350.383 497.493 336.31C497.076 335.907 496.665 335.504 496.254 335.1C495.843 334.697 495.432 334.294 495.015 333.89C481.751 321.319 470.085 307.426 460.424 291.897C456.077 287.057 452.384 281.769 449.974 275.674C443.668 267.472 438.939 258.397 434.795 248.963C427.048 234.846 420.224 220.325 415.833 204.774C400.699 169.548 393.965 132.239 388.943 94.2793C403.266 131.253 419.887 167.106 438.511 202.018C443.15 208.068 447.182 214.499 450.154 221.535C453.037 225.749 455.915 229.968 458.792 234.187C461.669 238.404 464.545 242.622 467.428 246.834C500.195 292.659 540.417 331.112 585.21 365.06C591.696 368.982 597.777 373.418 602.957 378.998C611.488 384.014 618.934 390.425 626.373 396.83C627.574 397.865 628.776 398.899 629.981 399.927C641.061 407.994 651.736 416.509 661.645 425.988C663.886 427.87 666.121 429.758 668.357 431.646C670.592 433.534 672.827 435.422 675.068 437.304C688.107 447.477 700.471 458.39 711.686 470.58C715.199 472.821 718.285 475.488 720.402 479.14C732.45 489.538 743.373 500.988 753.237 513.447L753.572 513.771C757.831 517.875 762.097 521.987 765.037 527.206C809.606 578.767 840.572 637.947 864.151 701.317C843.387 662.081 818.794 625.443 789.945 591.674C783.749 584.425 777.446 577.282 771.139 570.136C768.322 566.945 765.504 563.752 762.695 560.549C755.608 553.755 748.52 546.955 741.433 540.155C734.355 533.364 727.277 526.574 720.199 519.789C719.932 519.532 719.665 519.272 719.398 519.009ZM494.362 194.847C486.458 183.89 479.656 172.305 474.499 159.801C463.216 141.068 455.492 120.743 449.028 99.5676C456.201 109.192 463.368 118.811 470.535 128.429C477.703 138.048 484.87 147.667 492.043 157.291C492.549 157.975 493.062 158.653 493.574 159.33C494.086 160.008 494.599 160.686 495.105 161.37C505.721 173.718 516.314 186.067 526.907 198.416L527.017 198.545C527.31 198.881 527.602 199.211 527.895 199.542C528.188 199.872 528.481 200.203 528.774 200.539C529.044 200.808 529.32 201.077 529.596 201.346C529.872 201.615 530.148 201.883 530.418 202.152C532.039 203.945 533.661 205.732 535.282 207.519C536.904 209.306 538.525 211.093 540.147 212.886L573.792 246.834C575.684 248.649 577.582 250.465 579.479 252.28C581.376 254.095 583.274 255.91 585.165 257.725C593.473 265.127 601.791 272.519 610.112 279.914C614.512 283.825 618.914 287.736 623.315 291.651C626.265 293.04 628.675 295.034 630.252 297.925C645.43 309.779 659.866 322.417 673.176 336.333C673.525 336.646 673.88 336.96 674.234 337.274C674.589 337.588 674.944 337.901 675.293 338.215C691.215 351.525 706.259 365.755 719.996 381.306L722.316 383.614C736.436 396.611 749.228 410.795 760.961 425.943C761.66 426.728 762.353 427.518 763.046 428.309C763.738 429.098 764.43 429.888 765.128 430.671C796.859 467.04 823.253 506.837 844.242 550.174C820.303 514.321 791.589 482.479 762.605 450.839C758.859 447.19 755.108 443.547 751.356 439.903C747.597 436.253 743.838 432.602 740.085 428.946C732.833 423.456 726.032 417.473 720.041 410.616C714.785 406.136 709.534 401.65 704.283 397.165C699.028 392.676 693.773 388.187 688.512 383.704C683.535 380.544 678.806 377.071 675 372.522C665.137 364.711 655.262 356.911 645.392 349.114C641.02 345.66 636.648 342.206 632.279 338.753C631.49 338.058 630.725 337.386 629.959 336.714C578.657 300.726 534.224 258.016 500.128 205.245C499.736 204.645 499.546 203.915 499.355 203.182C499.26 202.819 499.166 202.456 499.047 202.108C496.412 200.382 495.173 197.76 494.362 194.847ZM361.672 204.279C361.807 205.01 361.942 205.741 362.076 206.477C367.369 219.9 372.661 233.345 377.931 246.834C381.718 254.293 385.511 261.757 389.304 269.22C393.089 276.669 396.874 284.118 400.654 291.561C403.086 293.264 404.325 295.662 404.843 298.508C413.626 311.146 422.431 323.784 431.237 336.422C450.402 359.973 472.382 380.791 495.105 400.891C500.258 405.1 505.406 409.309 510.553 413.519C515.709 417.735 520.865 421.951 526.026 426.167C532.084 429.909 537.737 434.167 542.669 439.298C555.911 448.284 568.388 458.233 580.481 468.676C581.51 469.483 582.529 470.3 583.545 471.114C584.109 471.565 584.671 472.015 585.233 472.463C616.221 495.341 646.354 519.273 675 545.043C721.64 584.033 762.583 628.043 795.44 679.268C795.976 680.091 796.315 681.028 796.653 681.966C796.812 682.407 796.972 682.849 797.152 683.279C799.832 684.915 799.832 688.634 798.39 689.329C796.935 690.027 796.669 688.915 796.373 687.679C796.165 686.811 795.942 685.882 795.283 685.475C756.052 636.379 707.587 597.411 657.299 560.415C652.772 557.322 648.24 554.224 643.708 551.127C639.175 548.029 634.643 544.931 630.116 541.838C617.242 533.224 604.345 524.609 591.447 515.994L591.291 515.89C588.476 515.509 586.449 513.895 584.805 511.722C553.231 492.563 522.018 472.866 492.335 450.883C480.219 443.758 468.824 435.623 458.374 426.234C454.839 424.89 451.933 422.761 449.794 419.624C434.75 409.451 421.058 397.754 409.099 384.062C406.194 382.292 403.672 380.141 402.343 376.892C391.376 365.665 382.547 352.937 375.453 338.977C358.383 310.384 348.181 279.349 342.236 246.79C339.556 235.832 337.168 224.83 337.213 213.469C335.75 211.362 335.187 209.077 335.84 206.544C335.795 205.794 335.744 205.044 335.693 204.294C335.643 203.543 335.592 202.792 335.547 202.04C331.786 168.63 331.989 135.241 337.191 101.696C343.812 135.533 350.681 169.257 361.265 202.063C361.401 202.805 361.537 203.542 361.672 204.279ZM287.865 211.314C289.213 223.156 290.56 234.995 291.902 246.834C295.055 260.952 298.23 275.069 301.428 289.119C312.193 321.319 325.03 352.601 343.677 381.216C346.39 384.902 349.109 388.587 351.828 392.273C354.548 395.96 357.268 399.646 359.982 403.333C366.838 410.779 373.671 418.225 380.505 425.671L380.611 425.786L383.61 428.356C390.713 434.441 397.8 440.514 404.888 446.603L436.034 470.939C441.236 473.807 446.146 477.034 450.199 481.426C471.583 495.664 492.979 509.891 514.37 524.115C522.941 529.814 531.511 535.512 540.079 541.211C540.669 541.562 541.259 541.912 541.849 542.263C551.282 547.866 560.698 553.458 569.176 560.46C575.211 562.947 580.436 566.622 585.323 570.857C587.865 572.446 590.422 574.013 592.979 575.58C606.432 583.828 619.873 592.07 631.152 603.349C631.603 603.461 631.896 603.775 632.031 604.223C644.863 609.876 655.388 618.717 665.913 627.557C668.946 630.105 671.979 632.652 675.068 635.124C726.775 675.414 770.24 722.381 797.129 782.816C758.034 728.992 706.619 689.195 650.993 654.059C649.685 653.233 648.467 652.25 647.251 651.269C646.751 650.865 646.251 650.462 645.746 650.07C643.145 648.513 640.538 646.95 637.931 645.387C635.324 643.824 632.718 642.261 630.116 640.703C599.308 623.651 568.523 606.598 537.737 589.545C507.92 574.801 478.44 559.474 449.952 542.286C434.21 534.6 419.166 525.794 404.955 515.576L404.91 515.554C372.03 495.565 340.006 474.435 315.909 443.78C301.316 425.204 291.564 404.073 285.799 381.172C280.687 366.673 277.173 351.839 276.52 336.4C273.232 321.633 272.309 306.642 272.422 291.561C272.512 279.618 272.602 267.652 272.692 255.686C273.728 227.541 276.723 199.62 283.367 171.722C284.862 184.925 286.364 198.121 287.865 211.314ZM675.113 119.063C708.443 135.309 738.103 156.776 765.083 182.03C772.807 187.766 779.541 194.511 785.666 201.906C812.286 227.832 834.784 256.918 853.093 289.186C854.953 289.945 855.338 291.575 855.721 293.192C855.801 293.533 855.882 293.874 855.976 294.205C865.029 307.359 872.326 321.431 878.001 336.333C895.792 368.914 916.038 439.679 912.75 460.272C885.928 398.493 852.53 342.249 808.57 292.592C794.72 278.116 780.892 263.663 767.064 249.21C766.366 248.605 765.646 247.977 764.947 247.35C730.401 216.524 694.685 187.076 658.97 157.629C629.494 133.327 600.019 109.025 571.203 83.9491C570.893 83.6809 570.688 83.3085 570.322 82.6445C570.076 82.1988 569.759 81.6218 569.288 80.8568C590.796 85.3609 611.042 90.1114 630.162 98.9178C639.778 101.136 648.628 105.192 657.074 110.167C663.672 111.937 669.573 115.119 675.113 119.063ZM797.646 392.91C794.458 389.229 791.27 385.547 788.076 381.866C780.499 374.11 772.924 366.354 765.35 358.598C750.231 343.117 735.112 327.635 719.974 312.154C712.677 306.687 705.898 300.659 699.863 293.824C695.304 289.748 690.751 285.671 686.198 281.594C681.641 277.514 677.085 273.434 672.523 269.355C668.305 265.65 664.088 261.941 659.87 258.231C655.643 254.513 651.415 250.794 647.187 247.081C640.566 242.868 634.913 237.58 629.869 231.619C619.892 224.381 611.154 215.821 602.979 206.634C566.721 173.089 535.71 135.062 506.028 95.7806C508.6 93.8295 509.929 94.982 511.252 96.1299C511.342 96.2081 511.432 96.2862 511.523 96.3633C532.8 114.309 554.107 132.221 575.414 150.133C623.679 190.708 671.944 231.283 719.861 272.245C793.346 335.055 843.387 414.179 879.037 502.983C879.78 504.82 880.185 506.456 878.879 509.414C857.98 471.701 833.14 437.483 807.241 403.983C804.039 400.292 800.842 396.601 797.646 392.91Z" fill="#0B87DD"/>
</svg>
